<svg version="1.1" id="Layer_1" xmlns="http://www.w3.org/2000/svg" xmlns:xlink="http://www.w3.org/1999/xlink" x="0px" y="0px"
	 width="100%" viewBox="0 0 581 580" enable-background="new 0 0 581 580" xml:space="preserve">
<path fill="#375F8F" opacity="1.000000" stroke="none" 
	d="
M1.000000,148.000000 
	C1.000000,101.979103 1.000000,55.958210 1.254091,9.248449 
	C4.005455,6.039723 6.502728,3.519862 9.000000,1.000000 
	C197.020889,1.000000 385.041779,1.000000 573.744629,1.255887 
	C576.950989,3.674521 579.475464,5.837268 582.000000,8.000008 
	C582.000000,54.687561 582.000000,101.375122 581.740356,148.744629 
	C578.482056,154.220535 574.312317,156.131195 568.523193,156.089035 
	C539.907043,155.880569 511.288574,155.991760 482.670929,155.999893 
	C474.026184,156.002350 474.015686,156.016510 474.005157,164.433838 
	C473.984589,180.905548 473.976990,197.377274 473.505493,213.895813 
	C469.043243,213.911392 465.039551,213.880157 461.028534,213.391479 
	C461.011108,196.118744 460.854706,179.301498 461.079620,162.489349 
	C461.147552,157.411682 459.298981,155.876312 454.368408,155.918701 
	C432.227142,156.109070 410.083252,155.997009 387.940308,155.996857 
	C303.364227,155.996323 218.788147,155.995758 134.212067,155.998627 
	C125.012589,155.998932 125.010925,156.009155 125.002724,165.401062 
	C124.988617,181.550369 124.976807,197.699661 124.505493,213.895813 
	C120.043259,213.911407 116.039574,213.880157 112.028542,213.391479 
	C112.012039,196.289337 112.021393,179.644608 111.984695,162.999969 
	C111.969826,156.255127 111.731468,156.014465 104.885094,156.009354 
	C74.924622,155.986938 44.962803,155.846085 15.004674,156.110825 
	C8.323016,156.169861 3.845492,153.857025 1.000000,148.000000 
z"/>
<path fill="#375F8F" opacity="1.000000" stroke="none" 
	d="
M582.000000,433.000000 
	C582.000000,482.308685 582.000000,531.617371 582.000000,580.963013 
	C388.454742,580.963013 194.909454,580.963013 1.000000,580.963013 
	C1.000000,532.313049 1.000000,483.625183 1.255249,434.248047 
	C4.379280,427.775848 9.156184,425.914215 15.431755,425.939270 
	C47.586548,426.067627 79.742241,425.972076 112.368744,425.961182 
	C116.927376,425.963318 121.014870,425.959045 125.564484,425.966400 
	C237.650284,425.970276 349.273987,425.962494 461.368713,425.960999 
	C465.927307,425.963074 470.014801,425.958893 474.564453,425.966370 
	C505.680695,425.987061 536.335510,426.111420 566.988281,425.911469 
	C573.402588,425.869659 578.312805,427.843109 582.000000,433.000000 
z"/>
<path fill="#A6A6A6" opacity="1.000000" stroke="none" 
	d="
M112.035881,213.848923 
	C116.039574,213.880157 120.043259,213.911407 124.972488,213.928589 
	C127.562523,213.942276 129.227020,213.994263 130.891510,213.994308 
	C238.942902,213.998154 346.994293,213.998596 455.045685,213.991608 
	C457.042419,213.991486 459.039124,213.898544 461.035858,213.848923 
	C465.039551,213.880157 469.043243,213.911392 473.972473,213.928589 
	C503.863831,213.943008 532.830872,214.125656 561.794617,213.895248 
	C569.353333,213.835129 576.357849,214.320526 582.000000,220.000000 
	C582.000000,267.687561 582.000000,315.375122 581.658203,363.601562 
	C576.472046,368.738586 570.575745,369.118713 564.240051,369.087280 
	C534.142822,368.937988 504.044037,369.091888 473.486511,369.094055 
	C469.036224,369.079407 465.045258,369.108582 460.582947,369.109497 
	C349.054901,369.068817 237.998199,369.056305 126.941483,369.047974 
	C126.276260,369.047913 125.611038,369.106567 124.486908,369.094116 
	C120.036751,369.079559 116.045502,369.108673 111.582916,369.109619 
	C81.907204,369.054260 52.702778,368.985992 23.498503,369.027100 
	C15.586124,369.038269 7.561016,369.889496 1.000000,364.000000 
	C1.000000,316.312439 1.000000,268.624878 1.319833,220.360901 
	C5.712596,215.277603 10.757683,213.880981 16.808798,213.909042 
	C48.550385,214.056290 80.293381,213.899857 112.035881,213.848923 
M206.500000,344.000000 
	C320.142670,343.999878 433.785309,344.000732 547.427979,343.997864 
	C556.988098,343.997650 556.996826,343.986115 556.998047,334.259003 
	C557.001770,305.098480 557.008789,275.937988 556.989563,246.777481 
	C556.984680,239.375824 556.645874,239.012650 549.463623,239.012192 
	C377.499939,239.001266 205.536255,239.001266 33.572567,239.011810 
	C26.353054,239.012253 26.015591,239.368240 26.010725,246.741318 
	C25.991259,276.235077 25.995773,305.728851 26.004639,335.222626 
	C26.007271,343.977814 26.027121,343.995422 35.035995,343.996368 
	C91.857330,344.002289 148.678665,343.999756 206.500000,344.000000 
z"/>
<path fill="#818181" opacity="1.000000" stroke="none" 
	d="
M112.028542,213.391479 
	C80.293381,213.899857 48.550385,214.056290 16.808798,213.909042 
	C10.757683,213.880981 5.712596,215.277603 1.319833,219.892242 
	C1.000000,196.312439 1.000000,172.624878 1.000000,148.468658 
	C3.845492,153.857025 8.323016,156.169861 15.004674,156.110825 
	C44.962803,155.846085 74.924622,155.986938 104.885094,156.009354 
	C111.731468,156.014465 111.969826,156.255127 111.984695,162.999969 
	C112.021393,179.644608 112.012039,196.289337 112.028542,213.391479 
z"/>
<path fill="#818181" opacity="1.000000" stroke="none" 
	d="
M1.000000,364.468658 
	C7.561016,369.889496 15.586124,369.038269 23.498503,369.027100 
	C52.702778,368.985992 81.907204,369.054260 111.571358,369.567871 
	C111.986633,388.687836 111.942123,407.321320 111.897614,425.954773 
	C79.742241,425.972076 47.586548,426.067627 15.431755,425.939270 
	C9.156184,425.914215 4.379280,427.775848 1.255249,433.779358 
	C1.000000,410.979095 1.000000,387.958221 1.000000,364.468658 
z"/>
<path fill="#818181" opacity="1.000000" stroke="none" 
	d="
M582.000000,219.531342 
	C576.357849,214.320526 569.353333,213.835129 561.794617,213.895248 
	C532.830872,214.125656 503.863831,213.943008 474.431030,213.881744 
	C473.976990,197.377274 473.984589,180.905548 474.005157,164.433838 
	C474.015686,156.016510 474.026184,156.002350 482.670929,155.999893 
	C511.288574,155.991760 539.907043,155.880569 568.523193,156.089035 
	C574.312317,156.131195 578.482056,154.220535 581.740356,149.213287 
	C582.000000,172.354233 582.000000,195.708450 582.000000,219.531342 
z"/>
<path fill="#818181" opacity="1.000000" stroke="none" 
	d="
M473.945831,369.137878 
	C504.044037,369.091888 534.142822,368.937988 564.240051,369.087280 
	C570.575745,369.118713 576.472046,368.738586 581.658203,364.070251 
	C582.000000,386.687561 582.000000,409.375122 582.000000,432.531342 
	C578.312805,427.843109 573.402588,425.869659 566.988281,425.911469 
	C536.335510,426.111420 505.680695,425.987061 474.539612,425.501831 
	C474.017059,406.396362 473.981445,387.767120 473.945831,369.137878 
z"/>
<path fill="#818181" opacity="1.000000" stroke="none" 
	d="
M8.505266,1.000000 
	C6.502728,3.519862 4.005455,6.039723 1.254091,8.779793 
	C1.000000,6.417543 1.000000,3.835086 1.000000,1.000000 
	C3.333921,1.000000 5.672227,1.000000 8.505266,1.000000 
z"/>
<path fill="#818181" opacity="1.000000" stroke="none" 
	d="
M582.000000,7.502103 
	C579.475464,5.837268 576.950989,3.674521 574.213257,1.255887 
	C576.575500,1.000000 579.150940,1.000000 582.000000,1.000000 
	C582.000000,2.997643 582.000000,5.000916 582.000000,7.502103 
z"/>
<path fill="#818181" opacity="1.000000" stroke="none" 
	d="
M461.028534,213.391479 
	C459.039124,213.898544 457.042419,213.991486 455.045685,213.991608 
	C346.994293,213.998596 238.942902,213.998154 130.891510,213.994308 
	C129.227020,213.994263 127.562523,213.942276 125.431030,213.881744 
	C124.976807,197.699661 124.988617,181.550369 125.002724,165.401062 
	C125.010925,156.009155 125.012589,155.998932 134.212067,155.998627 
	C218.788147,155.995758 303.364227,155.996323 387.940308,155.996857 
	C410.083252,155.997009 432.227142,156.109070 454.368408,155.918701 
	C459.298981,155.876312 461.147552,157.411682 461.079620,162.489349 
	C460.854706,179.301498 461.011108,196.118744 461.028534,213.391479 
z"/>
<path fill="#818181" opacity="1.000000" stroke="none" 
	d="
M124.945816,369.137848 
	C125.611038,369.106567 126.276260,369.047913 126.941483,369.047974 
	C237.998199,369.056305 349.054901,369.068817 460.571411,369.567780 
	C460.986664,388.687836 460.942169,407.321259 460.897675,425.954712 
	C349.273987,425.962494 237.650284,425.970276 125.539642,425.501831 
	C125.017067,406.396393 124.981445,387.767120 124.945816,369.137848 
z"/>
<path fill="#376092" opacity="1.000000" stroke="none" 
	d="
M124.486908,369.094116 
	C124.981445,387.767120 125.017067,406.396393 125.077530,425.490234 
	C121.014870,425.959045 116.927376,425.963318 112.368744,425.961182 
	C111.942123,407.321320 111.986633,388.687836 112.042702,369.596100 
	C116.045502,369.108673 120.036751,369.079559 124.486908,369.094116 
z"/>
<path fill="#376092" opacity="1.000000" stroke="none" 
	d="
M461.368713,425.960999 
	C460.942169,407.321259 460.986664,388.687836 461.042725,369.596069 
	C465.045258,369.108582 469.036224,369.079407 473.486511,369.094055 
	C473.981445,387.767120 474.017059,406.396362 474.077515,425.490173 
	C470.014801,425.958893 465.927307,425.963074 461.368713,425.960999 
z"/>
<path fill="#7F7F7F" opacity="1.000000" stroke="none" 
	d="
M206.000000,344.000000 
	C148.678665,343.999756 91.857330,344.002289 35.035995,343.996368 
	C26.027121,343.995422 26.007271,343.977814 26.004639,335.222626 
	C25.995773,305.728851 25.991259,276.235077 26.010725,246.741318 
	C26.015591,239.368240 26.353054,239.012253 33.572567,239.011810 
	C205.536255,239.001266 377.499939,239.001266 549.463623,239.012192 
	C556.645874,239.012650 556.984680,239.375824 556.989563,246.777481 
	C557.008789,275.937988 557.001770,305.098480 556.998047,334.259003 
	C556.996826,343.986115 556.988098,343.997650 547.427979,343.997864 
	C433.785309,344.000732 320.142670,343.999878 206.000000,344.000000 
z"/>
</svg>